<?xml version="1.0" encoding="utf-8"?>
<!-- Generator: Adobe Illustrator 23.0.5, SVG Export Plug-In . SVG Version: 6.00 Build 0)  -->
<svg version="1.1" id="Layer_1" xmlns="http://www.w3.org/2000/svg" xmlns:xlink="http://www.w3.org/1999/xlink" x="0px" y="0px"
	 viewBox="0 0 4238 965" style="enable-background:new 0 0 4238 965;" xml:space="preserve">
<style type="text/css">
	.st0{fill:#FFFFFF;}
	.st1{fill:#303030;}
	.st2{fill:#F6EE00;}
</style>
<g>
	<path class="st0" d="M296.89,691.91c-1.35,2.14-3.03,3.77-5.06,4.89c-2.02,1.12-4.16,1.69-6.41,1.69c-2.59,0-4.89-0.67-6.91-2.02
		c-2.14-1.24-3.74-2.89-4.8-4.97c-1.07-2.08-1.6-4.3-1.6-6.66c0-2.36,0.62-4.61,1.85-6.74c1.35-2.13,2.44-4.21,3.29-6.24
		c0.84-2.02,1.26-3.93,1.26-5.73c0-2.92-1.57-5.34-4.72-7.25c-5.17-3.26-13.09-4.78-23.77-4.55c-4.38,0-8.49,0.4-12.31,1.18
		c-3.82,0.79-7.75,2.14-11.8,4.05c-9.33,4.27-17.42,11.21-24.27,20.82c-6.86,9.61-11.41,22.11-13.65,37.51
		c-0.67,4.05-1.15,7.98-1.43,11.8c-0.28,3.82-0.42,7.48-0.42,10.96c0,7.42,0.62,14.02,1.85,19.81c1.24,5.79,3.09,10.87,5.56,15.26
		c5.96,10.9,15.17,17.31,27.65,19.22c2.58,0.34,5.28,0.51,8.09,0.51c7.19,0,14.97-1.24,23.35-3.71c8.37-2.47,17.17-6.12,26.38-10.96
		c2.02-1.12,4.16-1.69,6.41-1.69c2.36,0,4.58,0.62,6.66,1.85c2.08,1.24,3.79,2.92,5.14,5.06c1.01,2.02,1.52,4.1,1.52,6.24
		c0,2.36-0.62,4.61-1.85,6.74c-1.24,2.14-2.98,3.82-5.23,5.06c-11.24,5.96-22.11,10.45-32.62,13.49
		c-10.51,3.03-20.54,4.55-30.09,4.55c-2.02,0-4.02-0.08-5.98-0.25c-1.97-0.17-3.85-0.42-5.65-0.76
		c-10.34-1.46-19.55-4.95-27.65-10.45c-8.09-5.5-14.61-12.98-19.55-22.42c-3.26-6.29-5.82-13.4-7.67-21.33
		c-1.85-7.92-2.78-16.77-2.78-26.55c0-3.93,0.19-8.12,0.59-12.56c0.39-4.44,0.93-9.02,1.6-13.74c1.46-10.11,3.82-19.33,7.08-27.65
		c3.26-8.32,7.19-15.73,11.8-22.25c4.61-6.52,9.78-12.16,15.51-16.94c5.73-4.78,11.91-8.68,18.54-11.72
		c5.28-2.47,10.9-4.38,16.86-5.73c5.96-1.35,11.86-1.96,17.7-1.85c7.98-0.34,15.17,0.23,21.58,1.69c6.41,1.46,12.02,3.65,16.86,6.57
		c5.28,3.03,9.44,7.08,12.47,12.14c3.03,5.06,4.66,10.62,4.89,16.69C305.37,673.37,302.62,682.36,296.89,691.91z"/>
	<path class="st0" d="M410.34,689.89c0.67,0.45,1.26,0.9,1.77,1.35c0.51,0.45,1.1,1.01,1.77,1.69c2.25-2.36,5.39-3.54,9.44-3.54
		c1.8,0,3.6,0.31,5.39,0.93c1.8,0.62,3.43,1.43,4.89,2.44c1.46,1.01,2.56,2.25,3.29,3.71c0.73,1.46,0.98,3.09,0.76,4.89v0.67
		c0,0.11-0.06,0.28-0.17,0.51l-13.15,101.99c-0.45,3.71-2.11,6.68-4.97,8.93c-2.87,2.25-6.15,3.09-9.86,2.53
		c-3.48-0.45-6.38-2.11-8.68-4.97c-2.3-2.87-3.23-6.15-2.78-9.86l0.34-1.18c-4.83,5.73-10.2,10.37-16.1,13.91
		s-12.39,5.42-19.47,5.65c-6.86,0-13.29-1.13-19.3-3.37c-6.01-2.25-11.44-6.35-16.27-12.31c-3.37-4.49-6.18-9.8-8.43-15.93
		c-2.25-6.12-3.54-13.34-3.88-21.66c-0.11-2.92-0.11-6.01,0-9.27c0.11-3.26,0.39-6.69,0.84-10.28h0.17
		c0.78-6.85,2.36-13.34,4.72-19.47c2.36-6.12,5.31-11.72,8.85-16.77s7.61-9.55,12.22-13.49c4.61-3.93,9.44-7.19,14.5-9.78
		c3.93-2.13,8.15-3.73,12.64-4.8c4.49-1.07,8.93-1.6,13.32-1.6c6.07,0.34,11.38,1.32,15.93,2.95
		C402.67,685.37,406.74,687.42,410.34,689.89z M404.61,727.65c-2.36-1.12-4.24-2.84-5.65-5.14c-1.41-2.3-2-4.86-1.77-7.67
		c0-1.24-0.9-2.47-2.7-3.71c-1.46-1.12-3.35-2.02-5.65-2.7c-2.3-0.67-4.53-1.01-6.66-1.01c-2.59,0-5,0.34-7.25,1.01
		c-2.25,0.67-4.55,1.52-6.91,2.53c-6.52,3.26-12.22,8.21-17.11,14.83c-4.89,6.63-7.84,14.55-8.85,23.77
		c-0.45,5.62-0.62,10.79-0.51,15.51c0.45,10.12,2.64,17.48,6.57,22.08c1.69,2.36,3.73,3.93,6.15,4.72c2.42,0.79,4.86,1.18,7.33,1.18
		c5.39-0.34,10.28-2.58,14.67-6.74c4.38-4.16,8.37-9.44,11.97-15.85c3.6-6.41,6.74-13.4,9.44-20.99S402.7,734.62,404.61,727.65z"/>
	<path class="st0" d="M459.23,697.81c0.34-3.71,1.94-6.68,4.8-8.93c2.87-2.25,6.15-3.14,9.86-2.7c3.6,0.34,6.55,1.91,8.85,4.72
		c2.3,2.81,3.29,6.07,2.95,9.78l-0.67,4.05c4.05-5.28,8.48-9.47,13.32-12.56c4.83-3.09,10-4.64,15.51-4.64
		c4.61,0,8.68,0.93,12.22,2.78c3.54,1.85,6.57,4.36,9.1,7.5c2.53,3.15,4.66,6.89,6.41,11.21c1.74,4.33,3.17,8.96,4.3,13.91
		c2.47-4.94,5.17-9.58,8.09-13.91c2.92-4.33,6.04-8.06,9.36-11.21c3.31-3.14,6.8-5.65,10.45-7.5c3.65-1.85,7.5-2.78,11.55-2.78
		c6.41,0,11.72,1.94,15.93,5.82c4.21,3.88,7.5,8.91,9.86,15.09c2.36,6.18,4.02,13.15,4.97,20.9c0.95,7.75,1.43,15.62,1.43,23.6
		c0,7.08-0.25,13.96-0.76,20.65c-0.51,6.69-1.1,12.64-1.77,17.87c-0.67,5.23-1.52,10.99-2.53,17.28c-0.56,3.71-2.36,6.6-5.39,8.68
		c-3.03,2.08-6.35,2.78-9.95,2.11c-3.71-0.56-6.57-2.33-8.6-5.31c-2.02-2.98-2.7-6.32-2.02-10.03c0.67-4.05,1.24-7.73,1.69-11.04
		c0.45-3.31,0.98-7.14,1.6-11.46c0.62-4.33,1.21-8.91,1.77-13.74c0.56-4.83,0.98-9.72,1.26-14.67c0.28-4.94,0.42-9.61,0.42-13.99
		c0-3.59-0.11-6.91-0.34-9.95c-0.23-3.04-0.67-5.67-1.35-7.92c-0.67-2.25-1.49-4.02-2.44-5.31c-0.96-1.29-2.22-1.94-3.79-1.94
		c-3.71,0-7.28,2.33-10.7,7c-3.43,4.67-6.6,10.57-9.52,17.7c-2.92,7.14-5.62,14.81-8.09,23.01c-2.47,8.2-4.58,15.85-6.32,22.93
		c-1.74,7.08-3.57,15.4-5.48,24.95c-0.45,2.7-1.8,4.66-4.05,5.9c-2.25,1.24-4.72,1.85-7.42,1.85c-2.02,0-3.94-0.31-5.73-0.93
		c-1.8-0.62-3.43-1.43-4.89-2.44c-1.46-1.01-2.59-2.3-3.37-3.88c-0.79-1.57-1.01-3.26-0.67-5.06c0.11-1.24,0.45-3.82,1.01-7.75
		c0.56-3.93,1.15-8.68,1.77-14.25c0.62-5.56,1.21-11.55,1.77-17.95c0.56-6.41,0.84-12.64,0.84-18.71c0-4.49-0.17-8.68-0.51-12.56
		c-0.34-3.88-0.93-7.3-1.77-10.28c-0.84-2.98-1.91-5.31-3.2-7c-1.29-1.69-3.01-2.53-5.14-2.53c-2.81,0-5.59,1.38-8.34,4.13
		c-2.76,2.75-5.37,6.35-7.84,10.79c-2.47,4.44-4.75,9.55-6.83,15.34c-2.08,5.79-4.02,11.69-5.82,17.7
		c-1.8,6.01-3.37,11.88-4.72,17.62c-1.35,5.73-2.5,10.85-3.46,15.34c-0.96,4.5-1.94,9.55-2.95,15.17c-0.56,2.92-1.97,5.06-4.21,6.41
		c-2.25,1.35-4.83,2.02-7.75,2.02c-1.91,0-3.77-0.25-5.56-0.76c-1.8-0.51-3.37-1.32-4.72-2.44c-1.35-1.12-2.42-2.39-3.2-3.79
		c-0.79-1.41-1.07-3.06-0.84-4.97L459.23,697.81z"/>
	<path class="st0" d="M670.71,695.03c2.87-2.42,6.04-3.51,9.52-3.29c3.71,0.23,6.77,1.74,9.19,4.55c2.42,2.81,3.51,6.07,3.29,9.78
		c-0.34,6.63-0.59,12.5-0.76,17.62c-0.17,5.12-0.31,10.76-0.42,16.94c-0.11,6.18-0.17,12.2-0.17,18.04c0,3.71,0.03,7.25,0.08,10.62
		c0.06,3.37,0.17,6.35,0.34,8.93c0.17,2.59,0.42,4.61,0.76,6.07c0.34,1.46,0.73,2.19,1.18,2.19c1.35,0,2.92-1.35,4.72-4.05
		c1.8-2.7,3.85-6.26,6.15-10.7c2.3-4.44,4.72-9.52,7.25-15.26s5-11.55,7.42-17.45c2.42-5.9,4.72-11.72,6.91-17.45
		c2.19-5.73,4.16-10.82,5.9-15.26c1.74-4.44,3.62-9.41,5.65-14.92c1.24-3.37,3.51-5.87,6.83-7.5c3.31-1.63,6.66-1.77,10.03-0.42
		c3.37,1.35,5.84,3.62,7.42,6.83c1.57,3.2,1.74,6.6,0.51,10.2c-2.47,6.86-4.86,13.09-7.16,18.71c-2.3,5.62-4.97,12.03-8.01,19.22
		c-3.03,7.19-6.32,14.47-9.86,21.83c-3.54,7.36-7.28,14.64-11.21,21.83c-3.94,7.19-7.92,13.57-11.97,19.13
		c-4.05,5.56-8.04,10.03-11.97,13.4c-3.94,3.37-7.64,5.06-11.13,5.06c-3.71,0-6.94-1.29-9.69-3.88c-2.76-2.59-5.09-6.1-7-10.54
		c-1.91-4.44-3.48-9.5-4.72-15.17c-1.24-5.67-2.19-11.69-2.87-18.04c-0.67-6.35-1.15-12.73-1.43-19.13
		c-0.28-6.41-0.42-12.42-0.42-18.04c0-4.49,0.06-8.57,0.17-12.22c0.11-3.65,0.19-6.88,0.25-9.69c0.06-2.81,0.25-5.79,0.59-8.93
		C666.29,700.46,667.84,697.45,670.71,695.03z"/>
	<path class="st0" d="M799.58,763.56c0.22,3.26,0.76,6.72,1.6,10.37c0.84,3.65,2.13,7.03,3.88,10.11c1.74,3.09,3.96,5.59,6.66,7.5
		c2.7,1.91,5.9,2.87,9.61,2.87c5.84,0,10.9-0.67,15.17-2.02c4.27-1.35,7.75-2.84,10.45-4.47c2.7-1.63,5.39-3.85,8.09-6.66
		c2.58-3.37,6.07-5.06,10.45-5.06c3.14,0,5.9,0.96,8.26,2.87c3.37,2.7,5.06,6.18,5.06,10.45c0,2.92-0.96,5.68-2.87,8.26
		c-4.61,4.95-9.16,8.85-13.65,11.72c-4.5,2.87-10.14,5.5-16.94,7.92c-6.8,2.42-14.81,3.63-24.02,3.63c-8.2,0-15.34-1.83-21.41-5.48
		c-6.07-3.65-11.1-8.4-15.09-14.25c-3.99-5.84-6.97-12.39-8.93-19.64c-1.97-7.25-2.95-14.52-2.95-21.83
		c0-6.07,0.62-12.45,1.85-19.13c1.24-6.69,3.26-13.23,6.07-19.64c2.81-6.41,6.52-12.42,11.13-18.04
		c4.61-5.62,10.28-10.39,17.03-14.33c4.49-2.7,9.36-4.69,14.58-5.98c5.23-1.29,10.59-1.94,16.1-1.94c8.77,0,17,1.63,24.7,4.89
		c7.7,3.26,13.79,7.87,18.29,13.82c3.26,4.38,5.62,9.08,7.08,14.08c1.46,5,2.19,10.2,2.19,15.59c0,1.8-0.08,3.51-0.25,5.14
		c-0.17,1.63-0.37,3.34-0.59,5.14c-1.12,5.17-3.82,9.41-8.09,12.73c-4.27,3.32-9.38,5.9-15.34,7.75
		c-5.96,1.85-12.47,3.15-19.55,3.88c-7.08,0.73-14.11,1.1-21.07,1.1c-1.91,0-3.82,0-5.73,0c-1.69,0-3.43-0.11-5.23-0.34
		L799.58,763.56z M803.63,737.26c2.47,0.23,4.83,0.39,7.08,0.51c2.25,0.11,4.32,0.23,6.24,0.34c1.46,0.11,3.14,0.17,5.06,0.17
		c2.02,0,4.16,0,6.41,0c3.82,0,7.89-0.06,12.22-0.17c4.32-0.11,8.29-0.34,11.88-0.67c3.6-0.34,6.55-0.73,8.85-1.18
		c2.3-0.45,3.46-1.01,3.46-1.69c0.56-3.37,0.59-6.8,0.08-10.28c-0.51-3.48-1.66-6.46-3.46-8.93c-2.14-2.81-5.25-4.83-9.36-6.07
		c-4.1-1.24-8.23-1.85-12.39-1.85c-3.26,0-6.32,0.31-9.19,0.93c-2.87,0.62-5.59,1.66-8.18,3.12c-4.83,2.92-8.71,6.74-11.63,11.46
		C807.79,727.65,805.43,732.43,803.63,737.26z"/>
	<path class="st0" d="M951.13,697.81c0.34-3.71,1.94-6.68,4.8-8.93c2.87-2.25,6.15-3.14,9.86-2.7c3.6,0.34,6.55,1.91,8.85,4.72
		c2.3,2.81,3.29,6.07,2.95,9.78l-0.67,4.05c4.05-5.28,8.48-9.47,13.32-12.56c4.83-3.09,10-4.64,15.51-4.64
		c4.61,0,8.68,0.93,12.22,2.78c3.54,1.85,6.57,4.36,9.1,7.5c2.53,3.15,4.66,6.89,6.41,11.21c1.74,4.33,3.17,8.96,4.3,13.91
		c2.47-4.94,5.17-9.58,8.09-13.91c2.92-4.33,6.04-8.06,9.36-11.21c3.31-3.14,6.8-5.65,10.45-7.5c3.65-1.85,7.5-2.78,11.55-2.78
		c6.41,0,11.72,1.94,15.93,5.82c4.21,3.88,7.5,8.91,9.86,15.09c2.36,6.18,4.02,13.15,4.97,20.9c0.95,7.75,1.43,15.62,1.43,23.6
		c0,7.08-0.25,13.96-0.76,20.65c-0.51,6.69-1.1,12.64-1.77,17.87c-0.67,5.23-1.52,10.99-2.53,17.28c-0.56,3.71-2.36,6.6-5.39,8.68
		c-3.03,2.08-6.35,2.78-9.95,2.11c-3.71-0.56-6.57-2.33-8.6-5.31c-2.02-2.98-2.7-6.32-2.02-10.03c0.67-4.05,1.24-7.73,1.69-11.04
		c0.45-3.31,0.98-7.14,1.6-11.46c0.62-4.33,1.21-8.91,1.77-13.74c0.56-4.83,0.98-9.72,1.26-14.67c0.28-4.94,0.42-9.61,0.42-13.99
		c0-3.59-0.11-6.91-0.34-9.95c-0.23-3.04-0.67-5.67-1.35-7.92c-0.67-2.25-1.49-4.02-2.44-5.31c-0.96-1.29-2.22-1.94-3.79-1.94
		c-3.71,0-7.28,2.33-10.7,7c-3.43,4.67-6.6,10.57-9.52,17.7c-2.92,7.14-5.62,14.81-8.09,23.01c-2.47,8.2-4.58,15.85-6.32,22.93
		c-1.74,7.08-3.57,15.4-5.48,24.95c-0.45,2.7-1.8,4.66-4.05,5.9c-2.25,1.24-4.72,1.85-7.42,1.85c-2.02,0-3.94-0.31-5.73-0.93
		c-1.8-0.62-3.43-1.43-4.89-2.44c-1.46-1.01-2.59-2.3-3.37-3.88c-0.79-1.57-1.01-3.26-0.67-5.06c0.11-1.24,0.45-3.82,1.01-7.75
		c0.56-3.93,1.15-8.68,1.77-14.25c0.62-5.56,1.21-11.55,1.77-17.95c0.56-6.41,0.84-12.64,0.84-18.71c0-4.49-0.17-8.68-0.51-12.56
		c-0.34-3.88-0.93-7.3-1.77-10.28c-0.84-2.98-1.91-5.31-3.2-7c-1.29-1.69-3.01-2.53-5.14-2.53c-2.81,0-5.59,1.38-8.34,4.13
		c-2.76,2.75-5.37,6.35-7.84,10.79c-2.47,4.44-4.75,9.55-6.83,15.34c-2.08,5.79-4.02,11.69-5.82,17.7
		c-1.8,6.01-3.37,11.88-4.72,17.62c-1.35,5.73-2.5,10.85-3.46,15.34c-0.96,4.5-1.94,9.55-2.95,15.17c-0.56,2.92-1.97,5.06-4.21,6.41
		c-2.25,1.35-4.83,2.02-7.75,2.02c-1.91,0-3.77-0.25-5.56-0.76c-1.8-0.51-3.37-1.32-4.72-2.44c-1.35-1.12-2.42-2.39-3.2-3.79
		c-0.79-1.41-1.07-3.06-0.84-4.97L951.13,697.81z"/>
	<path class="st0" d="M1145.5,763.56c0.22,3.26,0.76,6.72,1.6,10.37c0.84,3.65,2.13,7.03,3.88,10.11c1.74,3.09,3.96,5.59,6.66,7.5
		c2.7,1.91,5.9,2.87,9.61,2.87c5.84,0,10.9-0.67,15.17-2.02c4.27-1.35,7.75-2.84,10.45-4.47c2.7-1.63,5.39-3.85,8.09-6.66
		c2.58-3.37,6.07-5.06,10.45-5.06c3.14,0,5.9,0.96,8.26,2.87c3.37,2.7,5.06,6.18,5.06,10.45c0,2.92-0.96,5.68-2.87,8.26
		c-4.61,4.95-9.16,8.85-13.65,11.72c-4.5,2.87-10.14,5.5-16.94,7.92c-6.8,2.42-14.81,3.63-24.02,3.63c-8.2,0-15.34-1.83-21.41-5.48
		c-6.07-3.65-11.1-8.4-15.09-14.25c-3.99-5.84-6.97-12.39-8.93-19.64c-1.97-7.25-2.95-14.52-2.95-21.83
		c0-6.07,0.62-12.45,1.85-19.13c1.24-6.69,3.26-13.23,6.07-19.64c2.81-6.41,6.52-12.42,11.13-18.04
		c4.61-5.62,10.28-10.39,17.03-14.33c4.49-2.7,9.36-4.69,14.58-5.98c5.23-1.29,10.59-1.94,16.1-1.94c8.77,0,17,1.63,24.7,4.89
		c7.7,3.26,13.79,7.87,18.29,13.82c3.26,4.38,5.62,9.08,7.08,14.08c1.46,5,2.19,10.2,2.19,15.59c0,1.8-0.08,3.51-0.25,5.14
		c-0.17,1.63-0.37,3.34-0.59,5.14c-1.12,5.17-3.82,9.41-8.09,12.73c-4.27,3.32-9.38,5.9-15.34,7.75
		c-5.96,1.85-12.47,3.15-19.55,3.88c-7.08,0.73-14.11,1.1-21.07,1.1c-1.91,0-3.82,0-5.73,0c-1.69,0-3.43-0.11-5.23-0.34
		L1145.5,763.56z M1149.55,737.26c2.47,0.23,4.83,0.39,7.08,0.51c2.25,0.11,4.32,0.23,6.24,0.34c1.46,0.11,3.14,0.17,5.06,0.17
		c2.02,0,4.16,0,6.41,0c3.82,0,7.89-0.06,12.22-0.17c4.32-0.11,8.29-0.34,11.88-0.67c3.6-0.34,6.55-0.73,8.85-1.18
		c2.3-0.45,3.46-1.01,3.46-1.69c0.56-3.37,0.59-6.8,0.08-10.28c-0.51-3.48-1.66-6.46-3.46-8.93c-2.14-2.81-5.25-4.83-9.36-6.07
		c-4.1-1.24-8.23-1.85-12.39-1.85c-3.26,0-6.32,0.31-9.19,0.93c-2.87,0.62-5.59,1.66-8.18,3.12c-4.83,2.92-8.71,6.74-11.63,11.46
		C1153.7,727.65,1151.34,732.43,1149.55,737.26z"/>
	<path class="st0" d="M1260.97,716.19c-3.71,0-6.89-1.26-9.52-3.79c-2.64-2.53-4.02-5.59-4.13-9.19c0-3.71,1.26-6.85,3.79-9.44
		c2.53-2.58,5.65-3.93,9.36-4.04l10.79-0.34c0.78-3.82,1.57-8.06,2.36-12.73c0.79-4.66,1.85-10.54,3.2-17.62
		c0.56-3.71,2.3-6.57,5.23-8.6c2.92-2.02,6.24-2.75,9.95-2.19c3.71,0.67,6.57,2.5,8.6,5.48c2.02,2.98,2.75,6.27,2.19,9.86
		c-0.34,2.7-0.9,6.3-1.69,10.79c-0.79,4.5-1.69,9.33-2.7,14.5l39.28-0.84c1.91,0,3.65,0.31,5.23,0.93c1.57,0.62,3.01,1.52,4.3,2.7
		c1.29,1.18,2.28,2.59,2.95,4.21c0.67,1.63,1.01,3.29,1.01,4.97c0,1.91-0.31,3.65-0.93,5.23c-0.62,1.58-1.52,3.01-2.7,4.3
		c-1.18,1.29-2.56,2.3-4.13,3.03c-1.57,0.73-3.26,1.1-5.06,1.1l-44.84,1.18c-1.24,2.81-2.47,7.19-3.71,13.15
		c-1.24,5.96-2.36,12.45-3.37,19.47c-1.01,7.02-1.85,13.99-2.53,20.9c-0.67,6.91-1.01,12.73-1.01,17.45c0,2.92,0.14,5.2,0.42,6.83
		c0.28,1.63,0.76,2.44,1.43,2.44c5.39,0,9.72-0.84,12.98-2.53c3.26-1.69,5.84-3.6,7.75-5.73c2.25-2.47,3.82-5.28,4.72-8.43
		c1.01-3.48,3.06-6.18,6.15-8.09c3.09-1.91,6.43-2.36,10.03-1.35c3.71,1.01,6.46,3.09,8.26,6.24c1.8,3.15,2.19,6.46,1.18,9.95
		c-1.12,3.6-2.42,6.77-3.88,9.53c-1.46,2.75-3.43,5.71-5.9,8.85c-2.47,3.15-5.62,6.1-9.44,8.85c-3.82,2.75-8.34,5-13.57,6.74
		c-5.23,1.74-11.32,2.61-18.29,2.61c-9.44,0-16.16-3.51-20.15-10.54c-3.99-7.02-5.98-16.83-5.98-29.42c0-8.54,0.76-18.46,2.28-29.75
		c1.52-11.29,3.4-23.52,5.65-36.67H1260.97z"/>
	<path class="st0" d="M1456.52,689.89c0.67,0.45,1.26,0.9,1.77,1.35c0.51,0.45,1.1,1.01,1.77,1.69c2.25-2.36,5.39-3.54,9.44-3.54
		c1.8,0,3.6,0.31,5.39,0.93c1.8,0.62,3.43,1.43,4.89,2.44c1.46,1.01,2.56,2.25,3.29,3.71c0.73,1.46,0.98,3.09,0.76,4.89v0.67
		c0,0.11-0.06,0.28-0.17,0.51l-13.15,101.99c-0.45,3.71-2.11,6.68-4.97,8.93c-2.87,2.25-6.15,3.09-9.86,2.53
		c-3.48-0.45-6.38-2.11-8.68-4.97c-2.3-2.87-3.23-6.15-2.78-9.86l0.34-1.18c-4.83,5.73-10.2,10.37-16.1,13.91
		c-5.9,3.54-12.39,5.42-19.47,5.65c-6.86,0-13.29-1.13-19.3-3.37c-6.01-2.25-11.44-6.35-16.27-12.31c-3.37-4.49-6.18-9.8-8.43-15.93
		c-2.25-6.12-3.54-13.34-3.88-21.66c-0.11-2.92-0.11-6.01,0-9.27c0.11-3.26,0.39-6.69,0.84-10.28h0.17
		c0.78-6.85,2.36-13.34,4.72-19.47c2.36-6.12,5.31-11.72,8.85-16.77c3.54-5.06,7.61-9.55,12.22-13.49c4.61-3.93,9.44-7.19,14.5-9.78
		c3.93-2.13,8.15-3.73,12.64-4.8c4.49-1.07,8.93-1.6,13.32-1.6c6.07,0.34,11.38,1.32,15.93,2.95
		C1448.85,685.37,1452.92,687.42,1456.52,689.89z M1450.79,727.65c-2.36-1.12-4.24-2.84-5.65-5.14c-1.41-2.3-2-4.86-1.77-7.67
		c0-1.24-0.9-2.47-2.7-3.71c-1.46-1.12-3.35-2.02-5.65-2.7c-2.3-0.67-4.52-1.01-6.66-1.01c-2.59,0-5,0.34-7.25,1.01
		c-2.25,0.67-4.55,1.52-6.91,2.53c-6.52,3.26-12.22,8.21-17.11,14.83c-4.89,6.63-7.84,14.55-8.85,23.77
		c-0.45,5.62-0.62,10.79-0.51,15.51c0.45,10.12,2.64,17.48,6.57,22.08c1.69,2.36,3.73,3.93,6.15,4.72c2.42,0.79,4.86,1.18,7.33,1.18
		c5.39-0.34,10.28-2.58,14.67-6.74c4.38-4.16,8.37-9.44,11.97-15.85c3.6-6.41,6.74-13.4,9.44-20.99
		C1446.58,741.9,1448.88,734.62,1450.79,727.65z"/>
	<path class="st0" d="M1513.67,644.71c0.56-3.71,2.28-6.69,5.14-8.93c2.87-2.25,6.09-3.15,9.69-2.7c3.71,0.34,6.71,1.97,9.02,4.89
		c2.3,2.92,3.17,6.24,2.61,9.95l-19.89,160.15c-0.34,3.71-1.97,6.71-4.89,9.02c-2.92,2.3-6.24,3.17-9.95,2.61
		c-3.71-0.45-6.69-2.11-8.93-4.97c-2.25-2.87-3.15-6.09-2.7-9.69L1513.67,644.71z"/>
	<path class="st0" d="M1601.33,716.19c-3.71,0-6.89-1.26-9.52-3.79c-2.64-2.53-4.02-5.59-4.13-9.19c0-3.71,1.26-6.85,3.79-9.44
		c2.53-2.58,5.65-3.93,9.36-4.04l10.79-0.34c0.79-3.82,1.57-8.06,2.36-12.73c0.78-4.66,1.85-10.54,3.2-17.62
		c0.56-3.71,2.3-6.57,5.23-8.6c2.92-2.02,6.24-2.75,9.95-2.19c3.71,0.67,6.57,2.5,8.6,5.48c2.02,2.98,2.75,6.27,2.19,9.86
		c-0.34,2.7-0.9,6.3-1.69,10.79c-0.79,4.5-1.69,9.33-2.7,14.5l39.28-0.84c1.91,0,3.65,0.31,5.23,0.93c1.57,0.62,3.01,1.52,4.3,2.7
		c1.29,1.18,2.28,2.59,2.95,4.21c0.67,1.63,1.01,3.29,1.01,4.97c0,1.91-0.31,3.65-0.93,5.23c-0.62,1.58-1.52,3.01-2.7,4.3
		c-1.18,1.29-2.56,2.3-4.13,3.03c-1.57,0.73-3.26,1.1-5.06,1.1l-44.84,1.18c-1.24,2.81-2.47,7.19-3.71,13.15
		c-1.24,5.96-2.36,12.45-3.37,19.47c-1.01,7.02-1.85,13.99-2.53,20.9c-0.67,6.91-1.01,12.73-1.01,17.45c0,2.92,0.14,5.2,0.42,6.83
		c0.28,1.63,0.76,2.44,1.43,2.44c5.39,0,9.72-0.84,12.98-2.53c3.26-1.69,5.84-3.6,7.75-5.73c2.25-2.47,3.82-5.28,4.72-8.43
		c1.01-3.48,3.06-6.18,6.15-8.09c3.09-1.91,6.43-2.36,10.03-1.35c3.71,1.01,6.46,3.09,8.26,6.24c1.8,3.15,2.19,6.46,1.18,9.95
		c-1.12,3.6-2.42,6.77-3.88,9.53c-1.46,2.75-3.43,5.71-5.9,8.85c-2.47,3.15-5.62,6.1-9.44,8.85c-3.82,2.75-8.34,5-13.57,6.74
		c-5.23,1.74-11.32,2.61-18.29,2.61c-9.44,0-16.16-3.51-20.15-10.54c-3.99-7.02-5.98-16.83-5.98-29.42c0-8.54,0.76-18.46,2.28-29.75
		c1.52-11.29,3.4-23.52,5.65-36.67H1601.33z"/>
	<path class="st0" d="M1713.26,699.5c0.34-3.6,1.94-6.58,4.8-8.93c2.87-2.36,6.15-3.31,9.86-2.87c3.6,0.45,6.55,2.08,8.85,4.89
		c2.3,2.81,3.29,6.07,2.95,9.78l-11.8,104.69c-0.34,3.71-1.94,6.69-4.8,8.93c-2.87,2.25-6.15,3.2-9.86,2.87
		c-3.6-0.45-6.55-2.08-8.85-4.89c-2.3-2.81-3.29-6.07-2.95-9.78L1713.26,699.5z M1718.15,648.59c0.56-3.6,2.28-6.55,5.14-8.85
		c2.87-2.3,6.1-3.17,9.69-2.61c1.8,0.23,3.46,0.79,4.97,1.69c1.52,0.9,2.81,2,3.88,3.29c1.07,1.29,1.85,2.78,2.36,4.47
		c0.51,1.69,0.65,3.49,0.42,5.39l-1.01,6.58c-0.34,3.71-1.97,6.66-4.89,8.85c-2.92,2.19-6.24,3.12-9.95,2.78
		c-3.6-0.56-6.52-2.28-8.77-5.14c-2.25-2.87-3.15-6.09-2.7-9.69L1718.15,648.59z"/>
	<path class="st0" d="M1868.35,731.87c-0.56,3.71-2.3,6.6-5.23,8.68c-2.92,2.08-6.24,2.78-9.95,2.11c-3.71-0.56-6.6-2.33-8.68-5.31
		c-2.08-2.98-2.78-6.26-2.11-9.86c0.22-2.7,0.17-5.34-0.17-7.92c-0.34-2.58-1.24-4.78-2.7-6.58c-1.8-2.13-4.3-3.65-7.5-4.55
		c-3.2-0.9-6.49-1.35-9.86-1.35c-3.03,0-5.9,0.31-8.6,0.93c-2.7,0.62-5.39,1.66-8.09,3.12c-5.51,2.81-10.31,7.31-14.41,13.49
		c-4.1,6.18-7.05,14.44-8.85,24.78l-0.17,0.17c-0.45,1.69-0.73,3.46-0.84,5.31c-0.11,1.85-0.17,3.74-0.17,5.65
		c0,4.27,0.42,8.43,1.26,12.47s2.05,7.59,3.62,10.62c1.91,3.48,4.32,6.24,7.25,8.26c2.92,2.02,6.24,3.15,9.95,3.37h0.17
		c2.58,0.23,4.83,0.25,6.74,0.08c1.91-0.17,4.05-0.59,6.41-1.26c5.17-1.35,9.63-3.4,13.4-6.15c3.76-2.75,6.49-5.59,8.18-8.51
		c1.24-2.13,2.89-3.76,4.97-4.89c2.08-1.12,4.24-1.69,6.49-1.69c2.47,0,4.72,0.56,6.74,1.69c2.13,1.24,3.79,2.92,4.97,5.06
		c1.18,2.14,1.77,4.33,1.77,6.57c0,2.14-0.62,4.27-1.85,6.41c-1.46,2.81-3.46,5.59-5.98,8.34c-2.53,2.75-5.45,5.31-8.77,7.67
		c-3.32,2.36-6.94,4.52-10.87,6.49c-3.94,1.96-8.09,3.51-12.47,4.64c-3.37,0.79-7,1.43-10.87,1.94c-3.88,0.51-7.5,0.59-10.87,0.25
		h-0.17c-8.43-0.67-15.9-3.26-22.42-7.75c-6.52-4.49-11.8-10.34-15.85-17.53c-2.92-5.28-5.06-10.9-6.41-16.86
		c-1.35-5.96-2.02-12.08-2.02-18.37c0-5.28,0.51-10.84,1.52-16.69c2.7-14.83,7.33-26.91,13.91-36.24
		c6.57-9.33,14.35-16.35,23.35-21.07c9.1-4.49,18.77-6.74,29-6.74c7.3,0,14.33,1.32,21.07,3.96c6.74,2.64,12.19,6.38,16.35,11.21
		c6.41,7.75,9.61,16.8,9.61,27.14c0,1.35-0.08,2.78-0.25,4.3C1868.78,728.75,1868.58,730.29,1868.35,731.87z"/>
	<path class="st0" d="M1974.39,689.89c0.67,0.45,1.26,0.9,1.77,1.35c0.51,0.45,1.1,1.01,1.77,1.69c2.25-2.36,5.39-3.54,9.44-3.54
		c1.8,0,3.6,0.31,5.39,0.93c1.8,0.62,3.43,1.43,4.89,2.44c1.46,1.01,2.56,2.25,3.29,3.71c0.73,1.46,0.98,3.09,0.76,4.89v0.67
		c0,0.11-0.06,0.28-0.17,0.51l-13.15,101.99c-0.45,3.71-2.11,6.68-4.97,8.93c-2.87,2.25-6.15,3.09-9.86,2.53
		c-3.48-0.45-6.38-2.11-8.68-4.97c-2.3-2.87-3.23-6.15-2.78-9.86l0.34-1.18c-4.83,5.73-10.2,10.37-16.1,13.91
		c-5.9,3.54-12.39,5.42-19.47,5.65c-6.86,0-13.29-1.13-19.3-3.37c-6.01-2.25-11.44-6.35-16.27-12.31c-3.37-4.49-6.18-9.8-8.43-15.93
		c-2.25-6.12-3.54-13.34-3.88-21.66c-0.11-2.92-0.11-6.01,0-9.27c0.11-3.26,0.39-6.69,0.84-10.28h0.17
		c0.78-6.85,2.36-13.34,4.72-19.47c2.36-6.12,5.31-11.72,8.85-16.77c3.54-5.06,7.61-9.55,12.22-13.49c4.61-3.93,9.44-7.19,14.5-9.78
		c3.93-2.13,8.15-3.73,12.64-4.8c4.49-1.07,8.93-1.6,13.32-1.6c6.07,0.34,11.38,1.32,15.93,2.95
		C1966.72,685.37,1970.79,687.42,1974.39,689.89z M1968.66,727.65c-2.36-1.12-4.24-2.84-5.65-5.14c-1.41-2.3-2-4.86-1.77-7.67
		c0-1.24-0.9-2.47-2.7-3.71c-1.46-1.12-3.35-2.02-5.65-2.7c-2.3-0.67-4.52-1.01-6.66-1.01c-2.59,0-5,0.34-7.25,1.01
		c-2.25,0.67-4.55,1.52-6.91,2.53c-6.52,3.26-12.22,8.21-17.11,14.83c-4.89,6.63-7.84,14.55-8.85,23.77
		c-0.45,5.62-0.62,10.79-0.51,15.51c0.45,10.12,2.64,17.48,6.57,22.08c1.69,2.36,3.73,3.93,6.15,4.72c2.42,0.79,4.86,1.18,7.33,1.18
		c5.39-0.34,10.28-2.58,14.67-6.74c4.38-4.16,8.37-9.44,11.97-15.85c3.6-6.41,6.74-13.4,9.44-20.99
		C1964.44,741.9,1966.74,734.62,1968.66,727.65z"/>
	<path class="st0" d="M2020.07,700.17c0.22-3.71,1.77-6.74,4.64-9.1c2.87-2.36,6.1-3.37,9.69-3.04c3.71,0.23,6.74,1.69,9.1,4.38
		c2.36,2.7,3.43,5.9,3.2,9.61l-0.51,4.72c4.38-5.39,9.13-9.75,14.24-13.06c5.11-3.31,10.76-4.97,16.94-4.97
		c8.2,0,14.83,1.01,19.89,3.03c5.06,2.02,8.96,4.61,11.72,7.75c2.75,3.15,4.61,6.55,5.56,10.2c0.95,3.65,1.43,7.11,1.43,10.37
		c0,1.8-0.06,3.43-0.17,4.89c-0.11,1.46-0.34,2.76-0.67,3.88c-0.23,1.35-0.56,2.53-1.01,3.54c-0.9,3.6-2.98,6.24-6.24,7.92
		c-3.26,1.69-6.63,2.02-10.11,1.01c-3.6-1.01-6.27-3.12-8.01-6.32c-1.74-3.2-2.05-6.6-0.93-10.2c0.34-2.02,0.22-3.63-0.34-4.8
		c-0.56-1.18-1.63-2.25-3.2-3.2c-1.58-0.95-4.21-1.43-7.92-1.43c-4.16,0-7.98,2.05-11.46,6.15c-3.48,4.1-6.66,9.3-9.52,15.59
		c-2.87,6.3-5.37,13.23-7.5,20.82c-2.14,7.59-3.94,14.86-5.39,21.83c-1.46,6.97-2.64,13.12-3.54,18.46
		c-0.9,5.34-1.52,9.08-1.85,11.21c-0.45,2.81-1.88,4.92-4.3,6.32c-2.42,1.4-5.09,2.11-8.01,2.11c-3.71,0-7.05-0.99-10.03-2.95
		c-2.98-1.97-4.36-4.8-4.13-8.51L2020.07,700.17z"/>
	<path class="st0" d="M2152.07,763.56c0.22,3.26,0.76,6.72,1.6,10.37c0.84,3.65,2.13,7.03,3.88,10.11c1.74,3.09,3.96,5.59,6.66,7.5
		c2.7,1.91,5.9,2.87,9.61,2.87c5.84,0,10.9-0.67,15.17-2.02c4.27-1.35,7.75-2.84,10.45-4.47c2.7-1.63,5.39-3.85,8.09-6.66
		c2.58-3.37,6.07-5.06,10.45-5.06c3.15,0,5.9,0.96,8.26,2.87c3.37,2.7,5.06,6.18,5.06,10.45c0,2.92-0.96,5.68-2.87,8.26
		c-4.61,4.95-9.16,8.85-13.65,11.72c-4.5,2.87-10.14,5.5-16.94,7.92c-6.8,2.42-14.81,3.63-24.02,3.63c-8.21,0-15.34-1.83-21.41-5.48
		c-6.07-3.65-11.1-8.4-15.09-14.25c-3.99-5.84-6.97-12.39-8.93-19.64c-1.97-7.25-2.95-14.52-2.95-21.83
		c0-6.07,0.62-12.45,1.85-19.13c1.24-6.69,3.26-13.23,6.07-19.64c2.81-6.41,6.52-12.42,11.13-18.04
		c4.61-5.62,10.28-10.39,17.03-14.33c4.49-2.7,9.36-4.69,14.58-5.98c5.23-1.29,10.59-1.94,16.1-1.94c8.77,0,17,1.63,24.7,4.89
		c7.7,3.26,13.79,7.87,18.29,13.82c3.26,4.38,5.62,9.08,7.08,14.08c1.46,5,2.19,10.2,2.19,15.59c0,1.8-0.08,3.51-0.25,5.14
		c-0.17,1.63-0.37,3.34-0.59,5.14c-1.12,5.17-3.82,9.41-8.09,12.73c-4.27,3.32-9.39,5.9-15.34,7.75
		c-5.96,1.85-12.47,3.15-19.55,3.88c-7.08,0.73-14.1,1.1-21.07,1.1c-1.91,0-3.82,0-5.73,0c-1.69,0-3.43-0.11-5.23-0.34
		L2152.07,763.56z M2156.11,737.26c2.47,0.23,4.83,0.39,7.08,0.51c2.25,0.11,4.33,0.23,6.24,0.34c1.46,0.11,3.15,0.17,5.06,0.17
		c2.02,0,4.16,0,6.41,0c3.82,0,7.89-0.06,12.22-0.17c4.33-0.11,8.29-0.34,11.88-0.67c3.6-0.34,6.55-0.73,8.85-1.18
		c2.3-0.45,3.46-1.01,3.46-1.69c0.56-3.37,0.59-6.8,0.08-10.28c-0.51-3.48-1.66-6.46-3.46-8.93c-2.14-2.81-5.25-4.83-9.36-6.07
		c-4.1-1.24-8.23-1.85-12.39-1.85c-3.26,0-6.32,0.31-9.19,0.93c-2.87,0.62-5.59,1.66-8.18,3.12c-4.83,2.92-8.71,6.74-11.63,11.46
		C2160.27,727.65,2157.91,732.43,2156.11,737.26z"/>
	<path class="st0" d="M2267.54,716.19c-3.71,0-6.89-1.26-9.52-3.79c-2.64-2.53-4.02-5.59-4.13-9.19c0-3.71,1.26-6.85,3.79-9.44
		c2.53-2.58,5.65-3.93,9.36-4.04l10.79-0.34c0.79-3.82,1.57-8.06,2.36-12.73c0.78-4.66,1.85-10.54,3.2-17.62
		c0.56-3.71,2.3-6.57,5.23-8.6c2.92-2.02,6.24-2.75,9.95-2.19c3.71,0.67,6.57,2.5,8.6,5.48c2.02,2.98,2.75,6.27,2.19,9.86
		c-0.34,2.7-0.9,6.3-1.69,10.79c-0.79,4.5-1.69,9.33-2.7,14.5l39.28-0.84c1.91,0,3.65,0.31,5.23,0.93c1.57,0.62,3.01,1.52,4.3,2.7
		c1.29,1.18,2.28,2.59,2.95,4.21c0.67,1.63,1.01,3.29,1.01,4.97c0,1.91-0.31,3.65-0.93,5.23c-0.62,1.58-1.52,3.01-2.7,4.3
		c-1.18,1.29-2.56,2.3-4.13,3.03c-1.57,0.73-3.26,1.1-5.06,1.1l-44.84,1.18c-1.24,2.81-2.47,7.19-3.71,13.15
		c-1.24,5.96-2.36,12.45-3.37,19.47c-1.01,7.02-1.85,13.99-2.53,20.9c-0.67,6.91-1.01,12.73-1.01,17.45c0,2.92,0.14,5.2,0.42,6.83
		c0.28,1.63,0.76,2.44,1.43,2.44c5.39,0,9.72-0.84,12.98-2.53c3.26-1.69,5.84-3.6,7.75-5.73c2.25-2.47,3.82-5.28,4.72-8.43
		c1.01-3.48,3.06-6.18,6.15-8.09c3.09-1.91,6.43-2.36,10.03-1.35c3.71,1.01,6.46,3.09,8.26,6.24c1.8,3.15,2.19,6.46,1.18,9.95
		c-1.12,3.6-2.42,6.77-3.88,9.53c-1.46,2.75-3.43,5.71-5.9,8.85c-2.47,3.15-5.62,6.1-9.44,8.85c-3.82,2.75-8.34,5-13.57,6.74
		c-5.23,1.74-11.32,2.61-18.29,2.61c-9.44,0-16.16-3.51-20.15-10.54c-3.99-7.02-5.98-16.83-5.98-29.42c0-8.54,0.76-18.46,2.28-29.75
		c1.52-11.29,3.4-23.52,5.65-36.67H2267.54z"/>
	<path class="st0" d="M2425.5,644.71c0.56-3.71,2.28-6.69,5.14-8.93c2.87-2.25,6.09-3.15,9.69-2.7c3.71,0.34,6.71,1.97,9.02,4.89
		c2.3,2.92,3.17,6.24,2.61,9.95l-19.89,160.15c-0.34,3.71-1.97,6.71-4.89,9.02c-2.92,2.3-6.24,3.17-9.95,2.61
		c-3.71-0.45-6.69-2.11-8.93-4.97c-2.25-2.87-3.15-6.09-2.7-9.69L2425.5,644.71z"/>
	<path class="st0" d="M2473.54,699.5c0.34-3.6,1.94-6.58,4.8-8.93c2.87-2.36,6.15-3.31,9.86-2.87c3.6,0.45,6.55,2.08,8.85,4.89
		c2.3,2.81,3.29,6.07,2.95,9.78l-11.8,104.69c-0.34,3.71-1.94,6.69-4.8,8.93c-2.87,2.25-6.15,3.2-9.86,2.87
		c-3.6-0.45-6.55-2.08-8.85-4.89c-2.3-2.81-3.29-6.07-2.95-9.78L2473.54,699.5z M2478.43,648.59c0.56-3.6,2.28-6.55,5.14-8.85
		c2.87-2.3,6.1-3.17,9.69-2.61c1.8,0.23,3.46,0.79,4.97,1.69c1.52,0.9,2.81,2,3.88,3.29c1.07,1.29,1.85,2.78,2.36,4.47
		c0.51,1.69,0.65,3.49,0.42,5.39l-1.01,6.58c-0.34,3.71-1.97,6.66-4.89,8.85c-2.92,2.19-6.24,3.12-9.95,2.78
		c-3.6-0.56-6.52-2.28-8.77-5.14c-2.25-2.87-3.15-6.09-2.7-9.69L2478.43,648.59z"/>
	<path class="st0" d="M2526.3,697.81c0.34-3.71,1.94-6.68,4.8-8.93c2.87-2.25,6.15-3.14,9.86-2.7c3.6,0.34,6.55,1.91,8.85,4.72
		c2.3,2.81,3.29,6.07,2.95,9.78l-0.67,4.05c4.05-5.28,8.48-9.47,13.32-12.56c4.83-3.09,10-4.64,15.51-4.64
		c4.61,0,8.68,0.93,12.22,2.78s6.57,4.36,9.1,7.5c2.53,3.15,4.66,6.89,6.41,11.21c1.74,4.33,3.17,8.96,4.3,13.91
		c2.47-4.94,5.17-9.58,8.09-13.91c2.92-4.33,6.04-8.06,9.36-11.21c3.31-3.14,6.8-5.65,10.45-7.5c3.65-1.85,7.5-2.78,11.55-2.78
		c6.41,0,11.72,1.94,15.93,5.82s7.5,8.91,9.86,15.09c2.36,6.18,4.02,13.15,4.97,20.9c0.95,7.75,1.43,15.62,1.43,23.6
		c0,7.08-0.25,13.96-0.76,20.65c-0.51,6.69-1.1,12.64-1.77,17.87c-0.67,5.23-1.52,10.99-2.53,17.28c-0.56,3.71-2.36,6.6-5.39,8.68
		c-3.03,2.08-6.35,2.78-9.95,2.11c-3.71-0.56-6.57-2.33-8.6-5.31c-2.02-2.98-2.7-6.32-2.02-10.03c0.67-4.05,1.24-7.73,1.69-11.04
		c0.45-3.31,0.98-7.14,1.6-11.46c0.62-4.33,1.21-8.91,1.77-13.74c0.56-4.83,0.98-9.72,1.26-14.67c0.28-4.94,0.42-9.61,0.42-13.99
		c0-3.59-0.11-6.91-0.34-9.95c-0.23-3.04-0.67-5.67-1.35-7.92c-0.67-2.25-1.49-4.02-2.44-5.31c-0.96-1.29-2.22-1.94-3.79-1.94
		c-3.71,0-7.28,2.33-10.7,7c-3.43,4.67-6.6,10.57-9.52,17.7c-2.92,7.14-5.62,14.81-8.09,23.01c-2.47,8.2-4.58,15.85-6.32,22.93
		c-1.74,7.08-3.57,15.4-5.48,24.95c-0.45,2.7-1.8,4.66-4.05,5.9c-2.25,1.24-4.72,1.85-7.42,1.85c-2.02,0-3.94-0.31-5.73-0.93
		c-1.8-0.62-3.43-1.43-4.89-2.44c-1.46-1.01-2.59-2.3-3.37-3.88c-0.79-1.57-1.01-3.26-0.67-5.06c0.11-1.24,0.45-3.82,1.01-7.75
		c0.56-3.93,1.15-8.68,1.77-14.25c0.62-5.56,1.21-11.55,1.77-17.95c0.56-6.41,0.84-12.64,0.84-18.71c0-4.49-0.17-8.68-0.51-12.56
		c-0.34-3.88-0.93-7.3-1.77-10.28c-0.84-2.98-1.91-5.31-3.2-7c-1.29-1.69-3.01-2.53-5.14-2.53c-2.81,0-5.59,1.38-8.34,4.13
		c-2.75,2.75-5.37,6.35-7.84,10.79c-2.47,4.44-4.75,9.55-6.83,15.34c-2.08,5.79-4.02,11.69-5.82,17.7
		c-1.8,6.01-3.37,11.88-4.72,17.62c-1.35,5.73-2.5,10.85-3.46,15.34c-0.96,4.5-1.94,9.55-2.95,15.17c-0.56,2.92-1.97,5.06-4.21,6.41
		c-2.25,1.35-4.83,2.02-7.75,2.02c-1.91,0-3.77-0.25-5.56-0.76c-1.8-0.51-3.37-1.32-4.72-2.44c-1.35-1.12-2.42-2.39-3.2-3.79
		c-0.79-1.41-1.07-3.06-0.84-4.97L2526.3,697.81z"/>
	<path class="st0" d="M2706.01,699.5c0.34-3.6,1.94-6.58,4.8-8.93c2.87-2.36,6.15-3.31,9.86-2.87c3.6,0.45,6.55,2.08,8.85,4.89
		c2.3,2.81,3.29,6.07,2.95,9.78l-11.8,104.69c-0.34,3.71-1.94,6.69-4.8,8.93c-2.87,2.25-6.15,3.2-9.86,2.87
		c-3.6-0.45-6.55-2.08-8.85-4.89c-2.3-2.81-3.29-6.07-2.95-9.78L2706.01,699.5z M2710.9,648.59c0.56-3.6,2.28-6.55,5.14-8.85
		c2.87-2.3,6.1-3.17,9.69-2.61c1.8,0.23,3.46,0.79,4.97,1.69c1.52,0.9,2.81,2,3.88,3.29c1.07,1.29,1.85,2.78,2.36,4.47
		c0.51,1.69,0.65,3.49,0.42,5.39l-1.01,6.58c-0.34,3.71-1.97,6.66-4.89,8.85c-2.92,2.19-6.24,3.12-9.95,2.78
		c-3.6-0.56-6.52-2.28-8.77-5.14c-2.25-2.87-3.15-6.09-2.7-9.69L2710.9,648.59z"/>
	<path class="st0" d="M2760.63,716.19c-3.71,0-6.89-1.26-9.52-3.79c-2.64-2.53-4.02-5.59-4.13-9.19c0-3.71,1.26-6.85,3.79-9.44
		c2.53-2.58,5.65-3.93,9.36-4.04l10.79-0.34c0.79-3.82,1.57-8.06,2.36-12.73c0.78-4.66,1.85-10.54,3.2-17.62
		c0.56-3.71,2.3-6.57,5.23-8.6c2.92-2.02,6.24-2.75,9.95-2.19c3.71,0.67,6.57,2.5,8.6,5.48c2.02,2.98,2.75,6.27,2.19,9.86
		c-0.34,2.7-0.9,6.3-1.69,10.79c-0.79,4.5-1.69,9.33-2.7,14.5l39.28-0.84c1.91,0,3.65,0.31,5.23,0.93c1.57,0.62,3.01,1.52,4.3,2.7
		c1.29,1.18,2.28,2.59,2.95,4.21c0.67,1.63,1.01,3.29,1.01,4.97c0,1.91-0.31,3.65-0.93,5.23c-0.62,1.58-1.52,3.01-2.7,4.3
		c-1.18,1.29-2.56,2.3-4.13,3.03c-1.57,0.73-3.26,1.1-5.06,1.1l-44.84,1.18c-1.24,2.81-2.47,7.19-3.71,13.15
		c-1.24,5.96-2.36,12.45-3.37,19.47c-1.01,7.02-1.85,13.99-2.53,20.9c-0.67,6.91-1.01,12.73-1.01,17.45c0,2.92,0.14,5.2,0.42,6.83
		c0.28,1.63,0.76,2.44,1.43,2.44c5.39,0,9.72-0.84,12.98-2.53c3.26-1.69,5.84-3.6,7.75-5.73c2.25-2.47,3.82-5.28,4.72-8.43
		c1.01-3.48,3.06-6.18,6.15-8.09c3.09-1.91,6.43-2.36,10.03-1.35c3.71,1.01,6.46,3.09,8.26,6.24c1.8,3.15,2.19,6.46,1.18,9.95
		c-1.12,3.6-2.42,6.77-3.88,9.53c-1.46,2.75-3.43,5.71-5.9,8.85c-2.47,3.15-5.62,6.1-9.44,8.85c-3.82,2.75-8.34,5-13.57,6.74
		c-5.23,1.74-11.32,2.61-18.29,2.61c-9.44,0-16.16-3.51-20.15-10.54c-3.99-7.02-5.98-16.83-5.98-29.42c0-8.54,0.76-18.46,2.28-29.75
		c1.52-11.29,3.4-23.52,5.65-36.67H2760.63z"/>
	<path class="st0" d="M2887.23,763.56c0.22,3.26,0.76,6.72,1.6,10.37c0.84,3.65,2.13,7.03,3.88,10.11c1.74,3.09,3.96,5.59,6.66,7.5
		c2.7,1.91,5.9,2.87,9.61,2.87c5.84,0,10.9-0.67,15.17-2.02c4.27-1.35,7.75-2.84,10.45-4.47c2.7-1.63,5.39-3.85,8.09-6.66
		c2.58-3.37,6.07-5.06,10.45-5.06c3.15,0,5.9,0.96,8.26,2.87c3.37,2.7,5.06,6.18,5.06,10.45c0,2.92-0.96,5.68-2.87,8.26
		c-4.61,4.95-9.16,8.85-13.65,11.72c-4.5,2.87-10.14,5.5-16.94,7.92c-6.8,2.42-14.81,3.63-24.02,3.63c-8.21,0-15.34-1.83-21.41-5.48
		c-6.07-3.65-11.1-8.4-15.09-14.25c-3.99-5.84-6.97-12.39-8.93-19.64c-1.97-7.25-2.95-14.52-2.95-21.83
		c0-6.07,0.62-12.45,1.85-19.13c1.24-6.69,3.26-13.23,6.07-19.64c2.81-6.41,6.52-12.42,11.13-18.04
		c4.61-5.62,10.28-10.39,17.03-14.33c4.49-2.7,9.36-4.69,14.58-5.98c5.23-1.29,10.59-1.94,16.1-1.94c8.77,0,17,1.63,24.7,4.89
		c7.7,3.26,13.79,7.87,18.29,13.82c3.26,4.38,5.62,9.08,7.08,14.08c1.46,5,2.19,10.2,2.19,15.59c0,1.8-0.08,3.51-0.25,5.14
		c-0.17,1.63-0.37,3.34-0.59,5.14c-1.12,5.17-3.82,9.41-8.09,12.73c-4.27,3.32-9.39,5.9-15.34,7.75
		c-5.96,1.85-12.47,3.15-19.55,3.88c-7.08,0.73-14.1,1.1-21.07,1.1c-1.91,0-3.82,0-5.73,0c-1.69,0-3.43-0.11-5.23-0.34
		L2887.23,763.56z M2891.27,737.26c2.47,0.23,4.83,0.39,7.08,0.51c2.25,0.11,4.33,0.23,6.24,0.34c1.46,0.11,3.15,0.17,5.06,0.17
		c2.02,0,4.16,0,6.41,0c3.82,0,7.89-0.06,12.22-0.17c4.33-0.11,8.29-0.34,11.88-0.67c3.6-0.34,6.55-0.73,8.85-1.18
		c2.3-0.45,3.46-1.01,3.46-1.69c0.56-3.37,0.59-6.8,0.08-10.28c-0.51-3.48-1.66-6.46-3.46-8.93c-2.14-2.81-5.25-4.83-9.36-6.07
		c-4.1-1.24-8.23-1.85-12.39-1.85c-3.26,0-6.32,0.31-9.19,0.93c-2.87,0.62-5.59,1.66-8.18,3.12c-4.83,2.92-8.71,6.74-11.63,11.46
		C2895.43,727.65,2893.07,732.43,2891.27,737.26z"/>
	<path class="st0" d="M3051.25,680.79c6.74,0,12.7,0.96,17.87,2.87c5.17,1.91,9.78,4.55,13.82,7.92l5.73-51.25
		c0.22-3.14,1.63-5.45,4.21-6.91c2.58-1.46,5.39-2.19,8.43-2.19c1.8,0,3.54,0.25,5.23,0.76c1.69,0.51,3.2,1.24,4.55,2.19
		c1.35,0.96,2.39,2.08,3.12,3.37c0.73,1.29,1.04,2.84,0.93,4.64c-0.34,7.31-0.82,14.02-1.43,20.15c-0.62,6.13-1.41,13.23-2.36,21.32
		c-0.96,8.09-2.22,16.63-3.79,25.62l-10.79,97.61c-0.45,3.71-2.08,6.68-4.89,8.93c-2.81,2.25-6.07,3.09-9.78,2.53
		c-3.26-0.23-5.98-1.55-8.18-3.96c-2.19-2.42-3.4-5.25-3.62-8.51c-4.05,4.05-8.37,7.22-12.98,9.52c-4.61,2.3-9.67,3.4-15.17,3.29
		h-0.17c-7.87,0.11-15.31-1.35-22.34-4.38c-7.02-3.03-13.01-7.42-17.95-13.15c-3.94-4.83-7.02-10.67-9.27-17.53
		c-2.25-6.85-3.37-14.1-3.37-21.75c0-1.8,0.06-3.54,0.17-5.23c0.11-1.69,0.28-3.43,0.51-5.23c1.12-9.1,3.46-17.9,7-26.38
		c3.54-8.48,8.01-15.99,13.4-22.5c5.39-6.52,11.6-11.77,18.63-15.76C3035.77,682.78,3043.27,680.79,3051.25,680.79z M3042.15,792.05
		c4.38,0,8.37-1.66,11.97-4.97c3.6-3.31,6.88-7.81,9.86-13.49c2.98-5.67,5.62-12.25,7.92-19.72c2.3-7.47,4.24-15.26,5.82-23.35
		c-3.15-2.02-5.23-4.89-6.24-8.6c-0.34-1.24-0.7-2.42-1.1-3.54c-0.4-1.12-0.99-2.19-1.77-3.2c-1.46-2.47-3.62-4.38-6.49-5.73
		s-6.49-2.02-10.87-2.02c-4.61,0-8.88,1.41-12.81,4.21c-3.94,2.81-7.45,6.49-10.54,11.04c-3.09,4.55-5.65,9.67-7.67,15.34
		c-2.02,5.68-3.37,11.21-4.05,16.6c-0.34,2.25-0.51,4.61-0.51,7.08c0,4.38,0.53,8.57,1.6,12.56c1.07,3.99,2.67,7.22,4.8,9.69
		c2.25,2.81,5.14,4.86,8.68,6.15C3034.31,791.4,3038.1,792.05,3042.15,792.05z"/>
	<path class="st0" d="M3267.4,671.81c-6.56-4.14-18.64-9.67-34.18-9.67c-17.95,0-27.96,10.36-27.96,22.79
		c0,13.81,10.01,20.02,31.76,28.31c29,11.05,43.85,25.55,43.85,50.41c0,24.51-15.88,43.16-44.54,48.33l-9.67,15.54
		c12.77,1.73,24.17,10.7,24.17,23.82c0,20.37-16.57,27.96-35.91,27.96c-8.29,0-17.61-2.42-23.48-5.87l5.18-14.85
		c5.52,3.45,12.43,5.18,18.64,5.18c7.6,0,14.85-2.76,14.85-11.05c-0.35-8.98-10.7-13.12-26.93-14.5l13.81-24.51
		c-17.61-0.34-34.18-4.49-45.57-11.39l7.6-23.13c8.98,5.87,24.86,12.08,40.05,12.08c22.1,0,32.45-11.05,32.45-24.86
		c0-14.5-8.63-22.44-31.07-30.73c-30.04-10.7-44.19-27.27-44.19-47.3c0-26.93,21.75-49.02,57.66-49.02
		c16.92,0,31.76,4.83,41.08,10.36L3267.4,671.81z"/>
	<path class="st0" d="M3311.36,699.5c0.34-3.6,1.94-6.58,4.8-8.93c2.87-2.36,6.15-3.31,9.86-2.87c3.6,0.45,6.55,2.08,8.85,4.89
		c2.3,2.81,3.29,6.07,2.95,9.78l-11.8,104.69c-0.34,3.71-1.94,6.69-4.8,8.93c-2.87,2.25-6.15,3.2-9.86,2.87
		c-3.6-0.45-6.55-2.08-8.85-4.89c-2.3-2.81-3.29-6.07-2.95-9.78L3311.36,699.5z M3316.25,648.59c0.56-3.6,2.28-6.55,5.14-8.85
		c2.87-2.3,6.1-3.17,9.69-2.61c1.8,0.23,3.46,0.79,4.97,1.69c1.52,0.9,2.81,2,3.88,3.29c1.07,1.29,1.85,2.78,2.36,4.47
		c0.51,1.69,0.65,3.49,0.42,5.39l-1.01,6.58c-0.34,3.71-1.97,6.66-4.89,8.85c-2.92,2.19-6.24,3.12-9.95,2.78
		c-3.6-0.56-6.52-2.28-8.77-5.14c-2.25-2.87-3.15-6.09-2.7-9.69L3316.25,648.59z"/>
	<path class="st0" d="M3360.92,700.17c0.22-3.71,1.77-6.74,4.64-9.1c2.87-2.36,6.1-3.37,9.69-3.04c3.71,0.23,6.74,1.69,9.1,4.38
		c2.36,2.7,3.43,5.9,3.2,9.61l-0.51,4.72c4.38-5.39,9.13-9.75,14.24-13.06c5.11-3.31,10.76-4.97,16.94-4.97
		c8.2,0,14.83,1.01,19.89,3.03c5.06,2.02,8.96,4.61,11.72,7.75c2.75,3.15,4.61,6.55,5.56,10.2c0.95,3.65,1.43,7.11,1.43,10.37
		c0,1.8-0.06,3.43-0.17,4.89c-0.11,1.46-0.34,2.76-0.67,3.88c-0.23,1.35-0.56,2.53-1.01,3.54c-0.9,3.6-2.98,6.24-6.24,7.92
		c-3.26,1.69-6.63,2.02-10.11,1.01c-3.6-1.01-6.27-3.12-8.01-6.32c-1.74-3.2-2.05-6.6-0.93-10.2c0.34-2.02,0.22-3.63-0.34-4.8
		c-0.56-1.18-1.63-2.25-3.2-3.2c-1.58-0.95-4.21-1.43-7.92-1.43c-4.16,0-7.98,2.05-11.46,6.15c-3.48,4.1-6.66,9.3-9.52,15.59
		c-2.87,6.3-5.37,13.23-7.5,20.82c-2.14,7.59-3.94,14.86-5.39,21.83c-1.46,6.97-2.64,13.12-3.54,18.46
		c-0.9,5.34-1.52,9.08-1.85,11.21c-0.45,2.81-1.88,4.92-4.3,6.32c-2.42,1.4-5.09,2.11-8.01,2.11c-3.71,0-7.05-0.99-10.03-2.95
		c-2.98-1.97-4.36-4.8-4.13-8.51L3360.92,700.17z"/>
	<path class="st0" d="M3490.05,630.21c3.03-2.02,6.41-2.7,10.11-2.02c3.6,0.56,6.43,2.39,8.51,5.48c2.08,3.09,2.67,6.43,1.77,10.03
		c0-0.56-0.48,1.55-1.43,6.32c-0.96,4.78-2.22,11.27-3.79,19.47c-1.58,8.21-3.2,17.39-4.89,27.56c-1.69,10.17-3.29,20.26-4.8,30.26
		c-1.52,10-2.78,19.28-3.79,27.82c-1.01,8.54-1.52,15.29-1.52,20.23c0,3.04,0.25,5.17,0.76,6.41c0.51,1.24,1.26,1.24,2.28,0
		c5.28-5.84,10.62-12.56,16.01-20.14s10.34-15.11,14.83-22.59c4.49-7.47,8.37-14.41,11.63-20.82c3.26-6.41,5.45-11.29,6.57-14.67
		c1.12-3.37,3.29-5.93,6.49-7.67c3.2-1.74,6.6-2.05,10.2-0.93c3.48,1.13,6.07,3.32,7.75,6.57c1.69,3.26,1.96,6.63,0.84,10.11
		c-0.9,2.36-2.22,5.31-3.96,8.85c-1.74,3.54-3.88,7.45-6.41,11.72c-2.53,4.27-5.34,8.85-8.43,13.74c-3.09,4.89-6.32,9.81-9.69,14.75
		l24.61,40.63c0.67,1.01,1.15,2.17,1.43,3.46c0.28,1.29,0.42,2.5,0.42,3.62c0,2.13-0.51,4.21-1.52,6.24
		c-1.01,2.02-2.59,3.65-4.72,4.89c-2.02,1.35-4.27,2.02-6.74,2.02c-2.36,0-4.55-0.56-6.57-1.69c-2.02-1.12-3.65-2.75-4.89-4.89
		l-19.05-31.02c-3.15,3.71-6.49,7.81-10.03,12.31c-3.54,4.5-7.25,8.71-11.13,12.64c-3.88,3.93-7.9,7.19-12.05,9.78
		c-4.16,2.58-8.43,3.76-12.81,3.54c-3.6-0.23-6.1-3.46-7.5-9.69c-1.41-6.24-2.11-14.3-2.11-24.19c0-8.77,0.45-18.54,1.35-29.33
		c0.9-10.79,2.02-21.72,3.37-32.79c1.35-11.07,2.81-21.86,4.38-32.37c1.57-10.51,3.01-19.81,4.3-27.9
		c1.29-8.09,2.84-17.14,4.64-27.14C3485.16,635.1,3487.02,632.24,3490.05,630.21z"/>
	<path class="st0" d="M3604.35,763.56c0.22,3.26,0.76,6.72,1.6,10.37c0.84,3.65,2.13,7.03,3.88,10.11c1.74,3.09,3.96,5.59,6.66,7.5
		c2.7,1.91,5.9,2.87,9.61,2.87c5.84,0,10.9-0.67,15.17-2.02c4.27-1.35,7.75-2.84,10.45-4.47c2.7-1.63,5.39-3.85,8.09-6.66
		c2.58-3.37,6.07-5.06,10.45-5.06c3.15,0,5.9,0.96,8.26,2.87c3.37,2.7,5.06,6.18,5.06,10.45c0,2.92-0.96,5.68-2.87,8.26
		c-4.61,4.95-9.16,8.85-13.65,11.72c-4.5,2.87-10.14,5.5-16.94,7.92c-6.8,2.42-14.81,3.63-24.02,3.63c-8.21,0-15.34-1.83-21.41-5.48
		c-6.07-3.65-11.1-8.4-15.09-14.25c-3.99-5.84-6.97-12.39-8.93-19.64c-1.97-7.25-2.95-14.52-2.95-21.83
		c0-6.07,0.62-12.45,1.85-19.13c1.24-6.69,3.26-13.23,6.07-19.64c2.81-6.41,6.52-12.42,11.13-18.04
		c4.61-5.62,10.28-10.39,17.03-14.33c4.49-2.7,9.36-4.69,14.58-5.98c5.23-1.29,10.59-1.94,16.1-1.94c8.77,0,17,1.63,24.7,4.89
		c7.7,3.26,13.79,7.87,18.29,13.82c3.26,4.38,5.62,9.08,7.08,14.08c1.46,5,2.19,10.2,2.19,15.59c0,1.8-0.08,3.51-0.25,5.14
		c-0.17,1.63-0.37,3.34-0.59,5.14c-1.12,5.17-3.82,9.41-8.09,12.73c-4.27,3.32-9.39,5.9-15.34,7.75
		c-5.96,1.85-12.47,3.15-19.55,3.88c-7.08,0.73-14.1,1.1-21.07,1.1c-1.91,0-3.82,0-5.73,0c-1.69,0-3.43-0.11-5.23-0.34
		L3604.35,763.56z M3608.39,737.26c2.47,0.23,4.83,0.39,7.08,0.51c2.25,0.11,4.33,0.23,6.24,0.34c1.46,0.11,3.15,0.17,5.06,0.17
		c2.02,0,4.16,0,6.41,0c3.82,0,7.89-0.06,12.22-0.17c4.33-0.11,8.29-0.34,11.88-0.67c3.6-0.34,6.55-0.73,8.85-1.18
		c2.3-0.45,3.46-1.01,3.46-1.69c0.56-3.37,0.59-6.8,0.08-10.28c-0.51-3.48-1.66-6.46-3.46-8.93c-2.14-2.81-5.25-4.83-9.36-6.07
		c-4.1-1.24-8.23-1.85-12.39-1.85c-3.26,0-6.32,0.31-9.19,0.93c-2.87,0.62-5.59,1.66-8.18,3.12c-4.83,2.92-8.71,6.74-11.63,11.46
		C3612.55,727.65,3610.19,732.43,3608.39,737.26z"/>
	<path class="st0" d="M3719.82,716.19c-3.71,0-6.89-1.26-9.52-3.79c-2.64-2.53-4.02-5.59-4.13-9.19c0-3.71,1.26-6.85,3.79-9.44
		c2.53-2.58,5.65-3.93,9.36-4.04l10.79-0.34c0.79-3.82,1.57-8.06,2.36-12.73c0.78-4.66,1.85-10.54,3.2-17.62
		c0.56-3.71,2.3-6.57,5.23-8.6c2.92-2.02,6.24-2.75,9.95-2.19c3.71,0.67,6.57,2.5,8.6,5.48c2.02,2.98,2.75,6.27,2.19,9.86
		c-0.34,2.7-0.9,6.3-1.69,10.79c-0.79,4.5-1.69,9.33-2.7,14.5l39.28-0.84c1.91,0,3.65,0.31,5.23,0.93c1.57,0.62,3.01,1.52,4.3,2.7
		c1.29,1.18,2.28,2.59,2.95,4.21c0.67,1.63,1.01,3.29,1.01,4.97c0,1.91-0.31,3.65-0.93,5.23c-0.62,1.58-1.52,3.01-2.7,4.3
		c-1.18,1.29-2.56,2.3-4.13,3.03c-1.57,0.73-3.26,1.1-5.06,1.1l-44.84,1.18c-1.24,2.81-2.47,7.19-3.71,13.15
		c-1.24,5.96-2.36,12.45-3.37,19.47c-1.01,7.02-1.85,13.99-2.53,20.9c-0.67,6.91-1.01,12.73-1.01,17.45c0,2.92,0.14,5.2,0.42,6.83
		c0.28,1.63,0.76,2.44,1.43,2.44c5.39,0,9.72-0.84,12.98-2.53c3.26-1.69,5.84-3.6,7.75-5.73c2.25-2.47,3.82-5.28,4.72-8.43
		c1.01-3.48,3.06-6.18,6.15-8.09c3.09-1.91,6.43-2.36,10.03-1.35c3.71,1.01,6.46,3.09,8.26,6.24c1.8,3.15,2.19,6.46,1.18,9.95
		c-1.12,3.6-2.42,6.77-3.88,9.53c-1.46,2.75-3.43,5.71-5.9,8.85c-2.47,3.15-5.62,6.1-9.44,8.85c-3.82,2.75-8.34,5-13.57,6.74
		c-5.23,1.74-11.32,2.61-18.29,2.61c-9.44,0-16.16-3.51-20.15-10.54c-3.99-7.02-5.98-16.83-5.98-29.42c0-8.54,0.76-18.46,2.28-29.75
		c1.52-11.29,3.4-23.52,5.65-36.67H3719.82z"/>
	<path class="st0" d="M3831.76,699.5c0.34-3.6,1.94-6.58,4.8-8.93c2.87-2.36,6.15-3.31,9.86-2.87c3.6,0.45,6.55,2.08,8.85,4.89
		c2.3,2.81,3.29,6.07,2.95,9.78l-11.8,104.69c-0.34,3.71-1.94,6.69-4.8,8.93c-2.87,2.25-6.15,3.2-9.86,2.87
		c-3.6-0.45-6.55-2.08-8.85-4.89c-2.3-2.81-3.29-6.07-2.95-9.78L3831.76,699.5z M3836.64,648.59c0.56-3.6,2.28-6.55,5.14-8.85
		c2.87-2.3,6.1-3.17,9.69-2.61c1.8,0.23,3.46,0.79,4.97,1.69c1.52,0.9,2.81,2,3.88,3.29c1.07,1.29,1.85,2.78,2.36,4.47
		c0.51,1.69,0.65,3.49,0.42,5.39l-1.01,6.58c-0.34,3.71-1.97,6.66-4.89,8.85c-2.92,2.19-6.24,3.12-9.95,2.78
		c-3.6-0.56-6.52-2.28-8.77-5.14c-2.25-2.87-3.15-6.09-2.7-9.69L3836.64,648.59z"/>
</g>
<g>
	<path class="st0" d="M1505.24,57.95l-19.88,67.04c-5.87-2.65-11.22-4.59-16.05-5.82c-4.83-1.23-9.52-1.85-14.06-1.85
		c-10.79,0-20.22,3.03-28.26,9.09c-8.05,6.06-13.21,13.92-15.48,23.58l-9.94,39.48h75.56l-15.05,72.72h-76.13l-47.72,226.39h-103.68
		l48.29-226.39h-62.21l15.91-72.72h61.64l10.51-47.15c7-31.06,21.63-54.77,43.89-71.16c22.25-16.38,50.99-24.57,86.21-24.57
		c10.79,0,21.73,0.95,32.81,2.84C1482.66,51.32,1493.88,54.16,1505.24,57.95z"/>
	<path class="st0" d="M1779.07,328.08l-17.33,84.93c-3.79,17.43-6.58,31.72-8.38,42.89c-1.8,11.18-3.08,22.06-3.83,32.67h-86.64
		l5.68-45.45c-11.55,17.04-26.04,29.97-43.46,38.77c-17.42,8.81-37.49,13.21-60.22,13.21c-30.3,0-54.54-8.14-72.72-24.43
		c-18.18-16.28-27.27-37.87-27.27-64.76c0-34.27,15.43-60.97,46.3-80.1c30.86-19.13,74.23-28.69,130.1-28.69
		c6.63,0,13.92,0.24,21.87,0.71c7.95,0.48,16.76,1.19,26.42,2.13c0.19-1.14,0.33-2.41,0.43-3.83c0.09-1.42,0.14-3.36,0.14-5.82
		c0-15.34-4.93-26.94-14.77-34.8c-9.85-7.86-24.14-11.79-42.89-11.79c-17.42,0-34.28,1.89-50.56,5.68
		c-16.29,3.79-32,9.47-47.15,17.04l12.21-69.88c16.48-5.87,32.9-10.27,49.28-13.21c16.38-2.93,33.09-4.4,50.14-4.4
		c43.74,0,77.88,8.48,102.4,25.42c24.52,16.95,36.78,40.29,36.78,70.02c0,6.82-0.57,14.77-1.7,23.86S1781.15,317.29,1779.07,328.08z
		 M1677.38,351.94c-3.79-0.38-7.72-0.66-11.79-0.85c-4.07-0.19-10.08-0.28-18.04-0.28c-27.65,0-48.72,3.93-63.2,11.79
		c-14.49,7.86-21.73,19.36-21.73,34.51c0,10.04,3.55,18.18,10.65,24.43c7.1,6.25,16.33,9.37,27.69,9.37
		c19.13,0,35.74-7.19,49.85-21.59C1664.93,394.93,1673.78,375.8,1677.38,351.94z"/>
	<path class="st0" d="M1910.02,52.27h103.4l-38.35,174.98c14.2-15.53,29.54-27.13,46.02-34.8c16.48-7.67,34.27-11.5,53.4-11.5
		c35.6,0,63.91,12.03,84.93,36.08c21.02,24.05,31.53,56.62,31.53,97.71c0,53.78-14.68,97.57-44.03,131.38
		c-29.36,33.8-67.42,50.7-114.19,50.7c-23.67,0-44.27-5.73-61.78-17.18c-17.52-11.46-32.05-28.64-43.6-51.56l-14.49,60.5h-94.31
		L1910.02,52.27z M2083.86,318.71c0-18.37-4.69-32.95-14.06-43.74s-21.92-16.19-37.64-16.19c-21.21,0-39.63,9.66-55.25,28.97
		c-15.62,19.32-23.43,42.23-23.43,68.74c0,19.32,5.02,34.7,15.05,46.16c10.04,11.46,23.48,17.18,40.34,17.18
		c20.64,0,38.3-9.84,52.98-29.54C2076.52,370.6,2083.86,346.74,2083.86,318.71z"/>
	<path class="st0" d="M2269.35,189.46h104.82l-31.53,150.26c-1.14,5.11-1.99,10.18-2.56,15.2c-0.57,5.02-0.85,9.8-0.85,14.34
		c0,14.58,3.41,25.71,10.23,33.38c6.82,7.67,16.57,11.5,29.26,11.5c19.5,0,36.17-8.42,49.99-25.28c13.82-16.85,24.14-41.19,30.96-73
		l26.7-126.4h104.82l-63.91,299.11h-93.74l11.65-50.56c-17.04,19.32-35.08,33.85-54.11,43.6c-19.03,9.75-38.96,14.63-59.79,14.63
		c-31.25,0-55.39-9.09-72.43-27.27c-17.04-18.18-25.56-43.84-25.56-76.98c0-10.23,0.95-22.39,2.84-36.5
		c1.89-14.1,4.64-29.68,8.24-46.73L2269.35,189.46z"/>
	<path class="st0" d="M2700.54,52.27h103.4l-92.32,436.31h-103.68L2700.54,52.27z"/>
	<path class="st0" d="M3002.49,181.51c48.29,0,86.25,12.5,113.91,37.5c27.65,25,41.47,59.37,41.47,103.11
		c0,52.46-17.71,94.78-53.12,126.97c-35.41,32.2-82.28,48.29-140.61,48.29c-47.72,0-85.26-12.21-112.63-36.64
		c-27.37-24.43-41.05-57.85-41.05-100.27c0-54.54,17.28-98,51.84-130.38C2896.87,197.7,2943.59,181.51,3002.49,181.51z
		 M3052.48,317.57c0-20.64-5.07-37.07-15.2-49.28c-10.13-12.21-23.72-18.32-40.76-18.32c-21.97,0-40.81,10.61-56.53,31.81
		c-15.72,21.21-23.58,47.06-23.58,77.55c0,19.88,5.35,36.12,16.05,48.71c10.7,12.6,24.47,18.89,41.33,18.89
		c21.77,0,40.34-10.51,55.67-31.53C3044.81,374.38,3052.48,348.44,3052.48,317.57z"/>
	<path class="st0" d="M3240.24,189.46h104.82l-31.53,150.26c-1.14,5.11-1.99,10.18-2.56,15.2c-0.57,5.02-0.85,9.8-0.85,14.34
		c0,14.58,3.41,25.71,10.23,33.38c6.82,7.67,16.57,11.5,29.26,11.5c19.5,0,36.17-8.42,49.99-25.28c13.82-16.85,24.14-41.19,30.96-73
		l26.7-126.4h104.82l-63.91,299.11h-93.74l11.65-50.56c-17.04,19.32-35.08,33.85-54.11,43.6c-19.03,9.75-38.96,14.63-59.79,14.63
		c-31.25,0-55.39-9.09-72.43-27.27c-17.04-18.18-25.56-43.84-25.56-76.98c0-10.23,0.95-22.39,2.84-36.5
		c1.89-14.1,4.64-29.68,8.24-46.73L3240.24,189.46z"/>
	<path class="st0" d="M3855.22,198.84l-22.72,65.9c-18.94-6.44-34.33-10.89-46.16-13.35c-11.84-2.46-22.77-3.69-32.81-3.69
		c-14.58,0-25.99,2.46-34.23,7.38c-8.24,4.93-12.36,11.55-12.36,19.88c0,10.79,12.5,20.74,37.5,29.83
		c10.23,3.79,18.27,6.92,24.14,9.37c21.21,8.9,36.69,19.22,46.44,30.96c9.75,11.74,14.63,26.04,14.63,42.89
		c0,32.76-12.83,59.08-38.49,78.97c-25.66,19.88-59.98,29.83-102.97,29.83c-21.21,0-41.71-1.61-61.5-4.83
		c-19.79-3.22-39.06-8.05-57.8-14.49l21.59-72.15c14.01,6.82,27.93,11.93,41.76,15.34c13.82,3.41,27.84,5.11,42.04,5.11
		c16.85,0,29.78-2.32,38.77-6.96c8.99-4.64,13.49-11.22,13.49-19.74c0-12.5-11.65-23.29-34.94-32.38c-3.79-1.32-6.63-2.37-8.52-3.13
		c-29.16-11.93-48.95-24.05-59.37-36.36c-10.42-12.31-15.62-28.31-15.62-48.01c0-28.97,12.97-52.59,38.92-70.87
		c25.94-18.27,60.22-27.41,102.83-27.41c16.09,0,32.85,1.47,50.28,4.4C3817.53,188.28,3835.9,192.78,3855.22,198.84z"/>
</g>
<g>
	<path class="st1" d="M1205.01,503.33c-5.91-62.96-11.26-125.98-16.71-188.98c-7.08-81.8-14.16-163.58-21.01-245.38
		c-0.5-6.1-2.07-7.06-8.08-6.16c-58.74,8.73-117.56,17.09-176.36,25.53c-91.33,13.1-182.71,26.15-274.04,39.27
		c-86.92,12.49-173.82,25.13-260.78,37.41c-6.54,0.92-9.86,3.2-12.43,9.38c-38.62,92.1-77.52,184.11-116.33,276.13
		c-9,21.37-17.96,42.78-27.47,65.46c4.8,0,8.19,0.02,11.59,0c93.33-0.21,186.66-0.48,279.99-0.61
		c203.64-0.25,407.25-0.52,610.89-0.44C1203.7,514.94,1205.89,512.77,1205.01,503.33z M910.17,505.75
		c-54.96,0.33-109.94-0.08-164.92,0.33c-9.02,0.08-11.38-2.7-11.18-11.4c0.35-16.9-0.59-33.84-0.77-50.78
		c-0.06-6.91-2.11-10.28-10.03-10.11c-22.67,0.52-45.39,0.48-68.08,0c-7.06-0.13-10.13,2.76-12.72,8.75
		c-8.12,18.74-16.9,37.2-25.05,55.92c-2.34,5.41-5.33,7.65-11.45,7.56c-22.04-0.36-44.1-0.46-66.16,0
		c-8.71,0.19-9.36-1.94-5.51-9.23c40.27-76.54,80.32-153.2,120.42-229.84c5.12-9.78,5.12-9.82-6.23-9.82
		c-45.7-0.02-91.41,0.27-137.13-0.25c-8.48-0.1-10.95,3.13-12.2,10.49c-2.61,15.4-5.56,30.77-8.92,46.02
		c-1.53,7-0.29,9.67,7.56,9.53c25.25-0.4,50.49-0.15,75.76-0.13c11.97,0,12.05,0.02,9.94,11.38c-2.67,14.43-5.72,28.78-8.12,43.26
		c-1.05,6.45-3.55,8.88-10.51,8.77c-25.9-0.46-51.8,0.13-77.67-0.36c-8.23-0.15-11.64,2.23-13.22,10.63
		c-6.33,33.84-13.66,67.49-20.14,101.31c-1.23,6.37-3.7,8.27-9.99,8.23c-42.51-0.25-85.02-0.27-127.53,0
		c-7.92,0.06-9.32-1.8-6.2-9.17c41.67-98.43,83.14-196.92,124.5-295.47c2.32-5.52,5.28-7.6,11.34-7.6
		c109.96,0.17,219.92,0.21,329.88-0.06c7.62-0.02,9.86,2.8,10.47,9.65c3.89,42.91,7.98,85.81,12.05,128.72
		c2.65,27.93,5.37,55.86,8.04,83.79c0.75-0.02,1.5-0.02,2.23-0.02c4.43-21.81,8.9-43.6,13.26-65.44
		c9.8-49.13,19.63-98.26,29.22-147.43c1.29-6.66,3.72-9.4,11.09-9.29c37.06,0.56,74.15,0.17,111.23,0.77
		c15.37,0.25,30.29,3.93,44.76,9.4c53.41,20.18,52.49,79.31,24.71,109.41c-11.07,11.97-24.25,20.6-39.33,26.59
		c-3.11,1.23-7.06,1.25-9.3,5.31c2.84,0.96,5.49,1.9,8.17,2.78c34.59,11.32,48.59,34.93,42.68,70.83
		c-7.4,44.99-36.97,67.95-78.06,79.71C948.46,503.81,929.33,505.65,910.17,505.75z M1185.75,504.67
		c-57.53-0.15-115.06-0.1-172.62-0.1c12.53-8.02,24.79-15.5,34.47-26.36c25.86-28.95,30.37-63.1,22.73-99.54
		c-3.11-14.87-14-23.92-27.76-29.52c-3.53-1.42-7.12-2.67-11.01-4.11c0.88-1.09,1.3-2.15,2-2.4c39.73-14.12,56.27-43.36,55.69-84.29
		c-0.5-35.16-18.15-58.89-48.48-74.2c-18.26-9.21-38.02-13.26-58.36-13.29c-170.7-0.19-341.41-0.19-512.11-0.25
		c-3.51,0-7.02,0-10.65-0.86c28.22-3.95,56.46-7.9,84.7-11.82c58.17-8.08,116.33-16.11,174.5-24.15
		c57.53-7.96,115.06-15.9,172.6-23.85c62.29-8.61,124.56-17.21,186.83-25.84c23.71-3.28,47.42-6.52,71.08-10.11
		c5.18-0.77,5.77,1.57,6.12,5.66c2.34,26.7,4.87,53.41,7.25,80.11c4.34,48.65,8.67,97.32,12.91,145.99
		c4.12,47.06,8.13,94.15,12.2,141.23c1.44,16.86,2.59,33.74,4.41,50.57C1192.86,503.25,1191.23,504.69,1185.75,504.67z"/>
	<path class="st2" d="M1185.75,504.67c-57.53-0.15-115.06-0.1-172.62-0.1c12.53-8.02,24.79-15.5,34.47-26.36
		c25.86-28.95,30.37-63.1,22.73-99.54c-3.11-14.87-14-23.92-27.76-29.52c-3.53-1.42-7.12-2.67-11.01-4.11c0.88-1.09,1.3-2.15,2-2.4
		c39.73-14.12,56.27-43.36,55.69-84.29c-0.5-35.16-18.15-58.89-48.48-74.2c-18.26-9.21-38.02-13.26-58.36-13.29
		c-170.7-0.19-341.41-0.19-512.11-0.25c-3.51,0-7.02,0-10.65-0.86c28.22-3.95,56.46-7.9,84.7-11.82
		c58.17-8.08,116.33-16.11,174.5-24.15c57.53-7.96,115.06-15.9,172.6-23.85c62.29-8.61,124.56-17.21,186.83-25.84
		c23.71-3.28,47.42-6.52,71.08-10.11c5.18-0.77,5.77,1.57,6.12,5.66c2.34,26.7,4.87,53.41,7.25,80.11
		c4.34,48.65,8.67,97.32,12.91,145.99c4.12,47.06,8.13,94.15,12.2,141.23c1.44,16.86,2.59,33.74,4.41,50.57
		C1192.86,503.25,1191.23,504.69,1185.75,504.67z"/>
	<path class="st2" d="M1002.39,347.96c-2.69-0.88-5.33-1.82-8.17-2.78c2.24-4.07,6.2-4.09,9.3-5.31
		c15.08-5.99,28.26-14.62,39.33-26.59c27.78-30.1,28.7-89.22-24.71-109.41c-14.46-5.47-29.39-9.15-44.76-9.4
		c-37.08-0.59-74.16-0.21-111.23-0.77c-7.37-0.12-9.8,2.63-11.09,9.29c-9.59,49.17-19.41,98.3-29.22,147.43
		c-4.35,21.83-8.82,43.62-13.26,65.44c-0.73,0-1.48,0-2.23,0.02c-2.67-27.93-5.39-55.86-8.04-83.79
		c-4.07-42.91-8.15-85.81-12.05-128.72c-0.61-6.85-2.86-9.67-10.47-9.65c-109.96,0.27-219.92,0.23-329.88,0.06
		c-6.06,0-9.02,2.07-11.34,7.6c-41.36,98.55-82.84,197.04-124.5,295.47c-3.13,7.37-1.73,9.23,6.2,9.17
		c42.51-0.27,85.02-0.25,127.53,0c6.29,0.04,8.77-1.86,9.99-8.23c6.48-33.82,13.81-67.47,20.14-101.31
		c1.57-8.4,4.99-10.78,13.22-10.63c25.88,0.5,51.78-0.1,77.67,0.36c6.96,0.12,9.46-2.32,10.51-8.77c2.4-14.48,5.45-28.83,8.12-43.26
		c2.11-11.36,2.03-11.38-9.94-11.38c-25.27-0.02-50.51-0.27-75.76,0.13c-7.85,0.13-9.09-2.53-7.56-9.53
		c3.36-15.25,6.31-30.62,8.92-46.02c1.25-7.37,3.72-10.59,12.2-10.49c45.72,0.52,91.43,0.23,137.13,0.25
		c11.36,0,11.36,0.04,6.23,9.82c-40.09,76.64-80.15,153.3-120.42,229.84c-3.86,7.29-3.2,9.42,5.51,9.23
		c22.06-0.46,44.12-0.36,66.16,0c6.12,0.1,9.11-2.15,11.45-7.56c8.15-18.72,16.94-37.18,25.05-55.92c2.59-5.99,5.66-8.88,12.72-8.75
		c22.69,0.48,45.41,0.52,68.08,0c7.92-0.17,9.98,3.2,10.03,10.11c0.17,16.94,1.11,33.88,0.77,50.78
		c-0.19,8.69,2.17,11.47,11.18,11.4c54.98-0.4,109.96,0,164.92-0.33c19.16-0.1,38.29-1.94,56.84-7.25
		c41.09-11.76,70.65-34.72,78.06-79.71C1050.98,382.89,1036.98,359.28,1002.39,347.96z M721.92,377.31
		c-14.02-0.63-28.1-0.19-42.15-0.19c-3.84-0.02-7.5-0.02-4.83-5.74c17.99-38.41,33.69-77.79,49.36-117.17
		c0.29-0.67,1.34-1.06,3.89-2.95c0,14.45-0.25,27.34,0.04,40.19c0.58,25.51,1.25,51.05,2.34,76.54
		C730.86,374.82,729.52,377.66,721.92,377.31z M956.31,437.13c-10.65,7.25-22.83,9.55-35.37,10.28c-5.41,0.31-10.86,0.06-16.29,0.06
		c-6.06,0-12.14-0.19-18.19,0.06c-5.79,0.25-7.79-1.07-6.33-7.67c4.6-20.83,8.33-41.84,12.49-62.77c0.67-3.34,1.02-7.08,6.08-6.98
		c14.37,0.27,28.83-0.59,43.09,0.73c14.14,1.3,25.73,7.85,29.56,23.08C975.7,411.23,969.83,427.94,956.31,437.13z M965.67,311.32
		c-12.8,6.98-26.88,7.25-38.75,7.62c-22.85,0.15-22.77,0.17-18.34-20.26c2.95-13.7,5.74-27.41,8.42-41.17
		c0.69-3.45,1.53-6.1,5.77-6.12c13.06-0.04,26.19-0.81,38.98,2.63c12.89,3.47,20.05,10.93,21.28,21.68
		C984.74,290.62,977.97,304.61,965.67,311.32z"/>
	<path class="st1" d="M956.31,437.13c-10.65,7.25-22.83,9.55-35.37,10.28c-5.41,0.31-10.86,0.06-16.29,0.06
		c-6.06,0-12.14-0.19-18.19,0.06c-5.79,0.25-7.79-1.07-6.33-7.67c4.6-20.83,8.33-41.84,12.49-62.77c0.67-3.34,1.02-7.08,6.08-6.98
		c14.37,0.27,28.83-0.59,43.09,0.73c14.14,1.3,25.73,7.85,29.56,23.08C975.7,411.23,969.83,427.94,956.31,437.13z"/>
	<path class="st1" d="M965.67,311.32c-12.8,6.98-26.88,7.25-38.75,7.62c-22.85,0.15-22.77,0.17-18.34-20.26
		c2.95-13.7,5.74-27.41,8.42-41.17c0.69-3.45,1.53-6.1,5.77-6.12c13.06-0.04,26.19-0.81,38.98,2.63
		c12.89,3.47,20.05,10.93,21.28,21.68C984.74,290.62,977.97,304.61,965.67,311.32z"/>
	<path class="st1" d="M721.92,377.31c-14.02-0.63-28.1-0.19-42.15-0.19c-3.84-0.02-7.5-0.02-4.83-5.74
		c17.99-38.41,33.69-77.79,49.36-117.17c0.29-0.67,1.34-1.06,3.89-2.95c0,14.45-0.25,27.34,0.04,40.19
		c0.58,25.51,1.25,51.05,2.34,76.54C730.86,374.82,729.52,377.66,721.92,377.31z"/>
</g>
</svg>
